PathFileType	4	(X/Y/Z)	s11c0102.trc
DataRate	CameraRate	NumFrames	NumMarkers	Units	OrigDataRate	OrigDataStartFrame	OrigNumFrames
200	200	4	48	mm	200	1500	2000
Frame#	Time	racr			lacr			c7			jug			rlel			rdr			llel			ldr			s2			lic			ric			lasi			rasi			rpsi			lpsi			rgt			lgt			rth1			rth2			rth3			rth4			rlfc			rmfc			rsh1			rsh2			rsh3			rsh4			rlmal			rcal			rtoe			rmt5			lth1			lth2			lth4			lth3			llfc			lmfc			llmal			lcal			lmt5			lsh1			lsh2			lsh3			lsh4			ltoe			SBIKE			LBIKE			RBIKE			
		X1	Y1	Z1	X2	Y2	Z2	X3	Y3	Z3	X4	Y4	Z4	X5	Y5	Z5	X6	Y6	Z6	X7	Y7	Z7	X8	Y8	Z8	X9	Y9	Z9	X10	Y10	Z10	X11	Y11	Z11	X12	Y12	Z12	X13	Y13	Z13	X14	Y14	Z14	X15	Y15	Z15	X16	Y16	Z16	X17	Y17	Z17	X18	Y18	Z18	X19	Y19	Z19	X20	Y20	Z20	X21	Y21	Z21	X22	Y22	Z22	X23	Y23	Z23	X24	Y24	Z24	X25	Y25	Z25	X26	Y26	Z26	X27	Y27	Z27	X28	Y28	Z28	X29	Y29	Z29	X30	Y30	Z30	X31	Y31	Z31	X32	Y32	Z32	X33	Y33	Z33	X34	Y34	Z34	X35	Y35	Z35	X36	Y36	Z36	X37	Y37	Z37	X38	Y38	Z38	X39	Y39	Z39	X40	Y40	Z40	X41	Y41	Z41	X42	Y42	Z42	X43	Y43	Z43	X44	Y44	Z44	X45	Y45	Z45	X46	Y46	Z46	X47	Y47	Z47	X48	Y48	Z48	
1500	7.5000	487.868954	1397.712089	-103.047982	469.512696	1410.594256	-446.669910	406.855600	1510.093081	-271.821724	450.848979	1331.088058	-280.639156	589.451399	1150.222050	-12.081429	781.756415	927.066131	-84.844527	520.097660	1121.389369	-556.184818	772.511654	924.079832	-466.726920	-118.769428	1195.438312	-242.179001	86.859408	1235.274739	-458.837866	113.264077	1203.781951	-60.352671	120.720013	1165.808554	-417.667462	142.849522	1145.344791	-96.951977	-73.392383	1267.939493	-186.114852	-85.690379	1264.783731	-282.293259	46.311886	1040.869450	-41.736797	25.238755	1117.831493	-475.329208	129.296767	921.014869	-38.973536	195.835997	864.443046	-56.714484	223.679501	783.383728	-75.059698	223.314914	886.386428	-69.892032	280.983590	697.563488	-100.839288	261.959365	676.347163	-223.355952	234.386817	549.324752	-77.215778	234.619680	462.389009	-92.735509	193.392314	385.408645	-90.993481	259.575114	458.587085	-123.427699	154.540388	249.767048	-100.815799	90.813366	241.204518	-147.329794	367.156336	165.279005	-149.599262	296.121071	147.761766	-78.768288	170.012013	1069.505903	-490.173438	255.519977	1066.338703	-485.137511	266.903245	1099.250424	-471.340003	331.633498	1018.532758	-487.850155	459.738136	961.221559	-463.920529	472.446804	954.201508	-331.537858	169.754193	647.282805	-422.174650	100.474112	629.415189	-385.084004	258.369860	494.928610	-451.901339	383.228392	872.011232	-475.917049	346.920647	795.838564	-457.569324	275.459831	744.302390	-450.179829	372.423661	779.585902	-433.552592	354.502520	472.354768	-386.761120	-215.666708	954.660158	-256.503772	-17.724386	80.881964	-461.049246	-17.773705	80.901816	-62.045868	
1501	7.5050	488.568930	1397.094136	-104.503049	468.472751	1410.959408	-447.175182	406.551812	1511.429979	-272.652535	450.716940	1332.414903	-281.654363	590.099212	1150.606809	-12.737350	781.779071	927.143193	-84.834681	520.063594	1121.876007	-554.961653	772.543496	924.258271	-466.511127	-118.065313	1196.067419	-242.053575	86.924296	1237.145985	-458.554067	114.345365	1202.928839	-61.202683	120.394350	1167.800204	-417.268254	143.604682	1145.388265	-97.979651	-72.998822	1268.599634	-185.223946	-85.205531	1265.628151	-282.069791	46.350998	1041.305067	-41.269622	25.309712	1120.214852	-475.622347	128.774849	921.456287	-38.505513	194.824610	864.482962	-56.370495	222.034572	783.247150	-74.107750	222.434115	886.367102	-69.748163	278.601402	696.796382	-99.553146	258.960331	675.949604	-222.006837	230.129257	548.889477	-76.364484	228.700354	461.945347	-92.838243	186.607753	385.664342	-90.428218	253.917392	457.890540	-122.673764	145.642252	250.621256	-100.723638	81.940238	242.853492	-147.208824	357.199171	163.495378	-149.486399	285.978018	146.815842	-78.652457	170.396095	1073.144166	-490.736183	255.837844	1070.587342	-485.417930	266.999512	1103.516510	-471.278863	332.389697	1023.420706	-488.140215	461.270793	967.041916	-463.908013	473.822185	960.448058	-331.495423	177.536785	647.023080	-422.679649	108.622431	628.107796	-385.537232	268.599329	495.792334	-451.957152	386.322409	876.299118	-475.938912	351.646572	799.076655	-457.709045	281.213612	746.040686	-450.434044	377.408211	783.252586	-433.501738	365.058989	474.506264	-386.501091	-215.683090	954.660389	-256.524595	-17.715004	80.944896	-461.037122	-17.701206	80.943022	-62.149292	
1502	7.5100	489.620891	1396.785714	-105.521926	467.439437	1411.164621	-447.446836	406.156704	1512.761480	-273.697051	450.540417	1333.456599	-282.632836	590.593362	1150.873516	-13.499365	781.772968	927.164098	-84.825796	520.334596	1122.081895	-553.872775	772.610256	924.415118	-466.394297	-118.124684	1197.023735	-241.738795	86.921145	1238.839631	-458.232234	115.225377	1202.405163	-61.923962	120.096078	1169.785986	-417.112439	144.259006	1145.392137	-98.712352	-72.663178	1269.258839	-184.390695	-85.285186	1266.694082	-281.239889	46.433978	1041.657327	-40.797557	25.399380	1122.492840	-475.957034	128.519418	922.221397	-38.168898	194.076551	864.755285	-56.048011	221.088608	783.152011	-73.759278	221.792307	886.474832	-69.540744	276.642664	696.249798	-98.438487	258.055406	675.389136	-221.605904	226.273365	548.941060	-75.708148	223.472931	461.971078	-92.286048	180.157025	386.369738	-89.916987	248.700515	457.584880	-122.121665	136.739644	252.011934	-100.713050	72.729668	245.453787	-146.748456	347.290462	162.188525	-149.258027	275.848555	146.316831	-78.489775	170.620485	1076.558621	-491.176377	256.079487	1074.535338	-485.694023	266.900611	1107.496027	-471.340759	332.935265	1027.894965	-488.376651	462.515651	972.243100	-463.784178	474.935114	966.280524	-331.407166	185.491018	646.059972	-423.188372	116.887016	626.164616	-386.088853	278.812903	495.915807	-452.095142	389.450488	879.770975	-475.751230	356.328809	801.836038	-457.868620	287.014603	747.295303	-450.766942	382.275272	786.526045	-433.616021	375.511068	476.273998	-386.663559	-215.696304	954.654827	-256.509610	-17.723304	80.954066	-461.045973	-17.716376	80.962211	-62.149046	
1503	7.5150	490.586278	1396.392448	-106.645192	466.539682	1411.252026	-447.618337	405.722133	1514.026777	-274.650213	450.185626	1334.642748	-283.564430	590.979376	1151.223059	-14.275174	781.750458	927.209778	-84.853127	520.665894	1122.847779	-553.076848	772.692075	924.524955	-466.350041	-117.846437	1197.513581	-241.435307	86.939377	1240.648961	-458.196829	115.973431	1202.106999	-62.494141	119.482001	1171.778674	-416.661510	144.812382	1145.351827	-99.201677	-72.486005	1269.898837	-183.466105	-85.378597	1268.023564	-280.341013	46.461220	1042.186288	-40.375814	25.301548	1124.359680	-476.158522	128.374485	923.028668	-37.612562	193.570222	865.260639	-55.708554	220.270444	783.528378	-73.081266	221.358312	886.773379	-69.293005	275.693776	696.179045	-97.306099	257.060326	675.410945	-220.671041	223.016234	549.120612	-75.057823	218.597341	462.335833	-91.801579	173.901358	387.534844	-89.674309	243.748142	457.547138	-121.715032	127.957530	254.183286	-100.753016	64.201254	248.467757	-146.944198	337.452465	161.603198	-149.206322	265.716785	146.682453	-78.354804	170.410811	1078.987160	-490.983786	256.108072	1078.146020	-485.945038	266.687064	1111.130908	-471.411360	333.348545	1032.046798	-488.486346	463.576782	976.842728	-463.658394	475.831334	971.567150	-331.371376	193.581099	644.632865	-423.854823	125.330257	623.747775	-386.734951	288.947501	495.358547	-452.226794	392.431028	882.800825	-475.646810	360.979983	804.109258	-458.153647	292.750685	748.253149	-451.191450	387.232430	789.289145	-433.880774	385.863904	477.097314	-386.737582	-215.709224	954.663043	-256.498961	-17.719823	80.972442	-461.040288	-17.725551	80.950689	-62.128114	
